<?xml version="1.0" encoding="UTF-8"?>
<svg width="16px" height="16px" viewBox="0 0 16 16" version="1.1" xmlns="http://www.w3.org/2000/svg" xmlns:xlink="http://www.w3.org/1999/xlink">
    <title>box</title>
    <g id="Page-1" stroke="none" stroke-width="1" fill="none" fill-rule="evenodd">
        <g id="Broadcasts---new-event" transform="translate(-1063.000000, -123.000000)" fill="#000000" fill-rule="nonzero">
            <g id="Group-39" transform="translate(0.000000, 100.000000)">
                <g id="Group-46" transform="translate(301.000000, 14.000000)">
                    <g id="Group-45" transform="translate(762.000000, 0.000000)">
                        <g id="box" transform="translate(0.000000, 9.000000)">
                            <path d="M8.186,1.03625056 C8.06661518,0.988405714 7.93338482,0.988405714 7.814,1.03625056 L1.846,3.42325056 L8,5.88425056 L14.154,3.42325056 L8.186,1.03625056 Z M15,4.16225056 L8.5,6.76225056 L8.5,14.6842506 L15,12.0842506 L15,4.16325056 L15,4.16225056 Z M7.5,14.6852506 L7.5,6.76125056 L1,4.16225056 L1,12.0852506 L7.5,14.6852506 L7.5,14.6852506 Z M7.443,0.107250561 C7.80056591,-0.035750187 8.19943409,-0.035750187 8.557,0.107250561 L15.686,2.95925056 C15.8756288,3.03524651 16,3.21896037 16,3.42325056 L16,12.0852506 C15.9997412,12.4940778 15.7506505,12.8615757 15.371,13.0132506 L8.186,15.8872506 C8.06661518,15.9350954 7.93338482,15.9350954 7.814,15.8872506 L0.63,13.0132506 C0.249956691,12.8618932 0.000422151041,12.4943249 0,12.0852506 L0,3.42325056 C0,3.21896037 0.124371155,3.03524651 0.314,2.95925056 L7.443,0.107250561 Z" id="Shape"></path>
                        </g>
                    </g>
                </g>
            </g>
        </g>
    </g>
</svg>