<?xml version="1.0" encoding="UTF-8"?>
<svg width="15px" height="14px" viewBox="0 0 15 14" version="1.1" xmlns="http://www.w3.org/2000/svg" xmlns:xlink="http://www.w3.org/1999/xlink">
    <title>house</title>
    <g id="Page-1" stroke="none" stroke-width="1" fill="none" fill-rule="evenodd">
        <g id="Broadcasts---new-event" transform="translate(-301.000000, -124.000000)" fill-rule="nonzero">
            <g id="Group-39" transform="translate(0.000000, 100.000000)">
                <g id="Group-46" transform="translate(301.000000, 14.000000)">
                    <g id="house" transform="translate(0.000000, 10.000000)">
                        <path d="M1.5006316,12.2927865 L1.5006316,5.79278645 L2.5006316,5.79278645 L2.5006316,12.2927865 C2.5006316,12.5689288 2.72448923,12.7927865 3.0006316,12.7927865 L12.0006316,12.7927865 C12.276774,12.7927865 12.5006316,12.5689288 12.5006316,12.2927865 L12.5006316,5.79278645 L13.5006316,5.79278645 L13.5006316,12.2927865 C13.5006316,13.1212136 12.8290587,13.7927865 12.0006316,13.7927865 L3.0006316,13.7927865 C2.17220448,13.7927865 1.5006316,13.1212136 1.5006316,12.2927865 Z M12.5006316,1.29278645 L12.5006316,4.79278645 L10.5006316,2.79278645 L10.5006316,1.29278645 C10.5006316,1.01664408 10.7244892,0.792786454 11.0006316,0.792786454 L12.0006316,0.792786454 C12.276774,0.792786454 12.5006316,1.01664408 12.5006316,1.29278645 Z" id="Shape" fill="#2A2D32"></path>
                        <path d="M6.7936316,0.292786454 C7.18413145,-0.0975954846 7.81713175,-0.0975954846 8.2076316,0.292786454 L14.8546316,6.93878645 C15.0501404,7.13429526 15.0501404,7.45127765 14.8546316,7.64678645 C14.6591228,7.84229526 14.3421404,7.84229526 14.1466316,7.64678645 L7.5006316,0.999786454 L0.854631601,7.64678645 C0.6591228,7.84229526 0.342140403,7.84229526 0.146631601,7.64678645 C-0.0488772004,7.45127765 -0.0488772004,7.13429526 0.146631601,6.93878645 L6.7936316,0.292786454 Z" id="Path" fill="#000000"></path>
                    </g>
                </g>
            </g>
        </g>
    </g>
</svg>