<?xml version="1.0" encoding="UTF-8"?>
<svg width="16px" height="16px" viewBox="0 0 16 16" version="1.1" xmlns="http://www.w3.org/2000/svg" xmlns:xlink="http://www.w3.org/1999/xlink">
    <title>chat-right-dots</title>
    <g id="Page-1" stroke="none" stroke-width="1" fill="none" fill-rule="evenodd">
        <g id="Broadcasts---new-event" transform="translate(-746.000000, -124.000000)" fill="#1D2229" fill-rule="nonzero">
            <g id="Group-39" transform="translate(0.000000, 100.000000)">
                <g id="Group-46" transform="translate(301.000000, 14.000000)">
                    <g id="Group-41" transform="translate(445.000000, 0.000000)">
                        <g id="chat-right-dots" transform="translate(0.000000, 10.000000)">
                            <path d="M2,1 C1.44771525,1 1,1.44771525 1,2 L1,10 C1,10.5522847 1.44771525,11 2,11 L11.586,11 C12.1163896,11.0001133 12.6250145,11.2109013 13,11.586 L15,13.586 L15,2 C15,1.44771525 14.5522847,1 14,1 L2,1 Z M14,0 C15.1045695,0 16,0.8954305 16,2 L16,14.793 C16,14.9953268 15.8779834,15.1776856 15.6910007,15.2549747 C15.5040179,15.3322638 15.2888857,15.2892474 15.146,15.146 L12.293,12.293 C12.1055073,12.1054506 11.8511948,12.0000566 11.586,12 L2,12 C0.8954305,12 0,11.1045695 0,10 L0,2 C0,0.8954305 0.8954305,0 2,0 L14,0 Z" id="Shape"></path>
                            <path d="M5,6 C5,6.55228475 4.55228475,7 4,7 C3.44771525,7 3,6.55228475 3,6 C3,5.44771525 3.44771525,5 4,5 C4.55228475,5 5,5.44771525 5,6 Z M9,6 C9,6.55228475 8.55228475,7 8,7 C7.44771525,7 7,6.55228475 7,6 C7,5.44771525 7.44771525,5 8,5 C8.55228475,5 9,5.44771525 9,6 Z M13,6 C13,6.55228475 12.5522847,7 12,7 C11.4477153,7 11,6.55228475 11,6 C11,5.44771525 11.4477153,5 12,5 C12.5522847,5 13,5.44771525 13,6 Z" id="Shape"></path>
                        </g>
                    </g>
                </g>
            </g>
        </g>
    </g>
</svg>