<?xml version="1.0" encoding="UTF-8"?>
<svg width="16px" height="12px" viewBox="0 0 16 12" version="1.1" xmlns="http://www.w3.org/2000/svg" xmlns:xlink="http://www.w3.org/1999/xlink">
    <title>card-heading</title>
    <g id="Page-1" stroke="none" stroke-width="1" fill="none" fill-rule="evenodd">
        <g id="Broadcasts---new-event" transform="translate(-597.000000, -125.000000)" fill="#1D2229" fill-rule="nonzero">
            <g id="Group-39" transform="translate(0.000000, 100.000000)">
                <g id="Group-46" transform="translate(301.000000, 14.000000)">
                    <g id="Group-42" transform="translate(296.000000, 0.000000)">
                        <g id="card-heading" transform="translate(0.000000, 11.000000)">
                            <path d="M14.5,1 C14.7761424,1 15,1.22385763 15,1.5 L15,10.5 C15,10.7761424 14.7761424,11 14.5,11 L1.5,11 C1.22385763,11 1,10.7761424 1,10.5 L1,1.5 C1,1.22385763 1.22385763,1 1.5,1 L14.5,1 Z M1.5,0 C0.671572875,0 0,0.671572875 0,1.5 L0,10.5 C0,11.3284271 0.671572875,12 1.5,12 L14.5,12 C15.3284271,12 16,11.3284271 16,10.5 L16,1.5 C16,0.671572875 15.3284271,0 14.5,0 L1.5,0 Z" id="Shape"></path>
                            <path d="M3,6.5 C3,6.22385763 3.22385763,6 3.5,6 L12.5,6 C12.7761424,6 13,6.22385763 13,6.5 C13,6.77614237 12.7761424,7 12.5,7 L3.5,7 C3.22385763,7 3,6.77614237 3,6.5 Z M3,8.5 C3,8.22385763 3.22385763,8 3.5,8 L9.5,8 C9.77614237,8 10,8.22385763 10,8.5 C10,8.77614237 9.77614237,9 9.5,9 L3.5,9 C3.22385763,9 3,8.77614237 3,8.5 Z M3,3.5 C3,3.22385763 3.22385763,3 3.5,3 L12.5,3 C12.7761424,3 13,3.22385763 13,3.5 L13,4.5 C13,4.77614237 12.7761424,5 12.5,5 L3.5,5 C3.22385763,5 3,4.77614237 3,4.5 L3,3.5 Z" id="Shape"></path>
                        </g>
                    </g>
                </g>
            </g>
        </g>
    </g>
</svg>