<?xml version="1.0" encoding="UTF-8"?>
<svg width="18px" height="21px" viewBox="0 0 18 21" version="1.1" xmlns="http://www.w3.org/2000/svg" xmlns:xlink="http://www.w3.org/1999/xlink">
    <title>bell</title>
    <g id="Page-1" stroke="none" stroke-width="1" fill="none" fill-rule="evenodd">
        <g id="Broadcasts---new-event" transform="translate(-1449.000000, -120.000000)" fill="#2A2D32" fill-rule="nonzero">
            <g id="Group-6" transform="translate(1449.000000, 104.000000)">
                <g id="bell" transform="translate(0.000000, 16.000000)">
                    <path d="M9,21 C10.4201608,21 11.5714286,19.8248117 11.5714286,18.3751435 L6.42857143,18.3751435 C6.42857143,19.8248117 7.57983921,21 9,21 Z M9,2.51838562 L7.97528571,2.72968657 C5.57897207,3.22808561 3.85740483,5.37935595 3.85714286,7.87571767 C3.85714286,8.6999226 3.68485714,10.7591225 3.267,12.7868241 C3.06128571,13.7934566 2.78357143,14.8420867 2.41457143,15.7502871 L15.5854286,15.7502871 C15.2164286,14.8420867 14.94,13.794769 14.733,12.7868241 C14.3151429,10.7591225 14.1428571,8.6999226 14.1428571,7.87571767 C14.1419842,5.37984906 12.4205548,3.22929947 10.0247143,2.730999 L9,2.51707319 L9,2.51838562 Z M16.9971429,15.7502871 C17.2838571,16.3369425 17.6155714,16.8015421 18,17.0627153 L0,17.0627153 C0.384428571,16.8015421 0.716142857,16.3369425 1.00285714,15.7502871 C2.16,13.3879162 2.57142857,9.03065452 2.57142857,7.87571767 C2.57142857,4.69964135 4.78285714,2.04853632 7.72071429,1.4435069 C7.67176385,0.945707623 7.9043287,0.462799927 8.32037629,0.198342826 C8.73642388,-0.0661142753 9.26357612,-0.0661142753 9.67962371,0.198342826 C10.0956713,0.462799927 10.3282361,0.945707623 10.2792857,1.4435069 C13.2753353,2.06557015 15.4281852,4.75479442 15.4285714,7.87571767 C15.4285714,9.03065452 15.84,13.3879162 16.9971429,15.7502871 L16.9971429,15.7502871 Z" id="Shape"></path>
                </g>
            </g>
        </g>
    </g>
</svg>