<?xml version="1.0" encoding="UTF-8"?>
<svg width="16px" height="12px" viewBox="0 0 16 12" version="1.1" xmlns="http://www.w3.org/2000/svg" xmlns:xlink="http://www.w3.org/1999/xlink">
    <title>card-checklist</title>
    <g id="Page-1" stroke="none" stroke-width="1" fill="none" fill-rule="evenodd">
        <g id="Broadcasts---new-event" transform="translate(-904.000000, -125.000000)" fill="#1D2229" fill-rule="nonzero">
            <g id="Group-39" transform="translate(0.000000, 100.000000)">
                <g id="Group-46" transform="translate(301.000000, 14.000000)">
                    <g id="Group-44" transform="translate(603.000000, 0.000000)">
                        <g id="card-checklist" transform="translate(0.000000, 11.000000)">
                            <path d="M14.5,1 C14.7761424,1 15,1.22385763 15,1.5 L15,10.5 C15,10.7761424 14.7761424,11 14.5,11 L1.5,11 C1.22385763,11 1,10.7761424 1,10.5 L1,1.5 C1,1.22385763 1.22385763,1 1.5,1 L14.5,1 Z M1.5,0 C0.671572875,0 0,0.671572875 0,1.5 L0,10.5 C0,11.3284271 0.671572875,12 1.5,12 L14.5,12 C15.3284271,12 16,11.3284271 16,10.5 L16,1.5 C16,0.671572875 15.3284271,0 14.5,0 L1.5,0 Z" id="Shape"></path>
                            <path d="M7,3.5 C7,3.22385763 7.22385763,3 7.5,3 L12.5,3 C12.7761424,3 13,3.22385763 13,3.5 C13,3.77614237 12.7761424,4 12.5,4 L7.5,4 C7.22385763,4 7,3.77614237 7,3.5 Z M5.504,2.646 C5.5980417,2.73980426 5.65089378,2.86717274 5.65089378,3 C5.65089378,3.13282726 5.5980417,3.26019574 5.504,3.354 L4.004,4.854 C3.91019574,4.9480417 3.78282726,5.00089378 3.65,5.00089378 C3.51717274,5.00089378 3.38980426,4.9480417 3.296,4.854 L2.796,4.354 C2.66952798,4.22752798 2.62013504,4.043191 2.66642701,3.87042701 C2.71271898,3.69766302 2.84766302,3.56271898 3.02042701,3.51642701 C3.193191,3.47013504 3.37752798,3.51952798 3.504,3.646 L3.65,3.793 L4.796,2.646 C4.88980426,2.5519583 5.01717274,2.49910622 5.15,2.49910622 C5.28282726,2.49910622 5.41019574,2.5519583 5.504,2.646 Z M7,7.5 C7,7.22385763 7.22385763,7 7.5,7 L12.5,7 C12.7761424,7 13,7.22385763 13,7.5 C13,7.77614237 12.7761424,8 12.5,8 L7.5,8 C7.22385763,8 7,7.77614237 7,7.5 Z M5.504,6.646 C5.5980417,6.73980426 5.65089378,6.86717274 5.65089378,7 C5.65089378,7.13282726 5.5980417,7.26019574 5.504,7.354 L4.004,8.854 C3.91019574,8.9480417 3.78282726,9.00089378 3.65,9.00089378 C3.51717274,9.00089378 3.38980426,8.9480417 3.296,8.854 L2.796,8.354 C2.66952798,8.22752798 2.62013504,8.043191 2.66642701,7.87042701 C2.71271898,7.69766302 2.84766302,7.56271898 3.02042701,7.51642701 C3.193191,7.47013504 3.37752798,7.51952798 3.504,7.646 L3.65,7.793 L4.796,6.646 C4.88980426,6.5519583 5.01717274,6.49910622 5.15,6.49910622 C5.28282726,6.49910622 5.41019574,6.5519583 5.504,6.646 L5.504,6.646 Z" id="Shape"></path>
                        </g>
                    </g>
                </g>
            </g>
        </g>
    </g>
</svg>